<svg xmlns="http://www.w3.org/2000/svg" viewBox="0 0 512 512" width="512" height="512">
	<style>
		tspan { white-space:pre }
		.shp0 { fill: #cf9901 } 
	</style>
	<g id="Layer">
		<g id="Layer">
			<path id="Layer" class="shp0" d="M496.33 127.09L480.65 136.7L281.83 258.62C273.85 263.48 264.91 265.92 255.99 265.92C247.07 265.92 238.16 263.49 230.21 258.65L230.08 258.57L31.35 134.77L15.67 125.01L0 115.24L0 417.96L512 417.96L512 117.49L496.33 127.09Z" />
		</g>
	</g>
	<g id="Layer">
		<g id="Layer">
			<path id="Layer" class="shp0" d="M25.25 94.04L50.41 109.71L75.57 125.39L246.58 231.91C252.42 235.43 259.66 235.42 265.49 231.87L439.14 125.39L464.7 109.71L490.26 94.04L25.25 94.04L25.25 94.04Z" />
		</g>
	</g>
	<g id="Layer">
	</g>
	<g id="Layer">
	</g>
	<g id="Layer">
	</g>
	<g id="Layer">
	</g>
	<g id="Layer">
	</g>
	<g id="Layer">
	</g>
	<g id="Layer">
	</g>
	<g id="Layer">
	</g>
	<g id="Layer">
	</g>
	<g id="Layer">
	</g>
	<g id="Layer">
	</g>
	<g id="Layer">
	</g>
	<g id="Layer">
	</g>
	<g id="Layer">
	</g>
	<g id="Layer">
	</g>
</svg>