<svg xmlns="http://www.w3.org/2000/svg" viewBox="0 0 512 512" width="512" height="512">
	<style>
		tspan { white-space:pre }
		.shp0 { fill: #cf9901 } 
	</style>
	<path id="Layer" fill-rule="evenodd" class="shp0" d="M512 75L512 437C512 478.35 478.35 512 437 512L75 512C33.65 512 0 478.35 0 437L0 75C0 33.65 33.65 0 75 0L437 0C478.35 0 512 33.65 512 75ZM392 255C392 180.56 331.44 120 257 120C182.56 120 122 180.56 122 255C122 329.44 182.56 390 257 390C331.44 390 392 329.44 392 255ZM452 105C452 80.19 431.81 60 407 60C382.19 60 362 80.19 362 105C362 129.81 382.19 150 407 150C431.81 150 452 129.81 452 105Z" />
	<path id="Layer" class="shp0" d="M407 90C398.72 90 392 96.72 392 105C392 113.28 398.72 120 407 120C415.28 120 422 113.28 422 105C422 96.72 415.28 90 407 90Z" />
	<path id="Layer" class="shp0" d="M257 150C199.11 150 152 197.11 152 255C152 312.89 199.11 360 257 360C314.89 360 362 312.89 362 255C362 197.11 314.89 150 257 150Z" />
</svg>