<svg xmlns="http://www.w3.org/2000/svg" viewBox="0 0 1596 925">
  <path id="Path 0" fill-rule="evenodd" d="M1302.49 18.16c1.37-.09 6.78 1.71 12.01 4 5.23 2.29 14.91 7.46 21.52 11.49a405.85 405.85 0 0124.22 16.34 789.93 789.93 0 0126.02 20.35c7.6 6.24 23.35 20.64 34.99 32s24.61 26.06 28.82 32.66c4.21 6.6 9.02 16.05 10.68 21 2.27 6.78 2.74 14.18 1.89 30-.65 12.31-3.65 32.17-7.25 48-3.37 14.85-7.37 31.5-8.89 37-1.52 5.5-9.1 29.8-16.85 54-7.74 24.2-15.08 49.17-16.31 55.5-1.24 6.33-3.14 11.95-4.25 12.5-1.1.55-10.07-5.52-19.94-13.5a6117.16 6117.16 0 00-29.25-23.5 1739.41 1739.41 0 00-25.78-20l-35.32-26.86c-11.46-8.72-26.71-21.77-33.9-29-7.18-7.23-16.73-18.09-21.22-24.14-4.49-6.05-9.98-14.6-12.22-19-2.23-4.4-6.4-15.65-9.26-25-3.67-11.96-5.23-21.59-5.26-32.5-.02-8.52.93-20.23 2.11-26 1.17-5.77 4.45-17.7 7.27-26.5 2.82-8.8 5.82-16.9 6.65-18 .84-1.1 4.89-8.3 9-16 4.11-7.7 10.36-17.6 13.89-22 3.53-4.4 7.42-9.8 8.65-12 1.22-2.2 9.7-12.26 18.85-22.34 9.14-10.09 17.75-18.42 19.13-18.5zM1326.7 99c1.12 12.1 3.52 31.9 5.33 44 1.81 12.1 5.39 29.2 7.95 38 2.56 8.8 6.61 21.85 9 29 2.39 7.15 12.76 32.8 23.04 57 10.29 24.2 20.95 49.4 23.7 56 3.41 8.16 6.12 12 8.49 12 2.96 0 5.12-8.06 14.23-53 5.9-29.15 11.54-61.1 12.52-71 .99-10.06 1.04-24.62.1-33-1.26-11.24-3.72-19.14-9.82-31.5-5.44-11.02-11.97-20.35-19.65-28.08-6.33-6.37-20.07-17.93-30.53-25.69-10.46-7.76-23.08-16.48-28.03-19.37-4.96-2.9-10.57-5.29-12.48-5.32-1.93-.02-4.01 1.96-4.68 4.46-.66 2.48-.29 14.4.83 26.5zm-60.9.13a228.82 228.82 0 00-11.58 21.87 123.2 123.2 0 00-7.62 25c-1.21 7.15-1.8 22-1.3 33 .84 18.83 1.42 21.04 9.77 37.72 6.08 12.13 14.66 24.43 27.23 39 10.09 11.7 26.3 29.43 36.03 39.38 9.73 9.96 27.38 27.28 39.21 38.5 13.47 12.76 22.65 20.03 24.53 19.4 2.46-.82 1.78-3.59-3.83-15.5a1334.04 1334.04 0 01-14.18-31.5 1338.2 1338.2 0 00-14.89-33c-4.14-8.8-11.4-29.05-16.12-45a1865.72 1865.72 0 01-17.31-64c-4.8-19.25-10.18-46.7-11.95-61-1.76-14.3-4.24-27.17-5.51-28.59-1.26-1.42-2.88-2.55-3.6-2.5-.71.05-6.12 3.97-12.01 8.72-5.89 4.74-13.48 13.07-16.87 18.5zm-377.23 27.03c4.96-.08 17.12.81 27.03 1.99 9.91 1.17 27.48 5.27 39.04 9.12 11.56 3.84 30.93 11.82 43.04 17.73 12.12 5.92 34.65 19.13 50.09 29.38a1847.6 1847.6 0 0151.51 35.62c12.89 9.35 31.35 22.7 41 29.66 9.66 6.97 26.57 18.59 37.58 25.84 11.01 7.25 24.98 16.05 31.03 19.55l31.04 17.95a8701.11 8701.11 0 0050.04 28.62c16.52 9.37 39.49 22.38 51.06 28.92 11.56 6.53 30.7 16.73 42.54 22.67a764.97 764.97 0 0046.04 20.69 546.93 546.93 0 0049.55 16.76 1043.3 1043.3 0 0055.06 13.01c16.52 3.37 37.24 7.21 46.04 8.52 8.81 1.31 18.12 3.38 20.68 4.6 4.65 2.2 4.64 2.22-10.67 13.13l-25.02-4.9c-13.76-2.7-30.43-6.34-37.04-8.11-6.6-1.76-20.12-5.33-30.03-7.93-9.91-2.61-21.17-6.04-25.02-7.64-3.86-1.6-17.82-6.69-31.03-11.3a853.63 853.63 0 01-43.05-16.49 2646.35 2646.35 0 01-39.03-17.07 546.41 546.41 0 01-40.04-20.45 1733.75 1733.75 0 00-42.05-23.15 3298.88 3298.88 0 01-35.03-18.82 646.02 646.02 0 01-22.02-12.68 2396.52 2396.52 0 00-28.03-16.71c-10.46-6.14-24.43-15-31.03-19.67-6.61-4.67-14.72-9.91-18.02-11.64-6-3.14-6.03-3.13-29.15 12.25a729.72 729.72 0 01-48.05 28.78c-13.7 7.36-35.26 17.43-47.93 22.37-12.66 4.95-33.83 11.34-47.04 14.22-18.97 4.13-29.51 5.23-50.05 5.25-14.32.01-32.34-.94-40.04-2.12a523.7 523.7 0 01-24.03-4.3c-5.5-1.19-21.72-5.77-36.03-10.19-14.32-4.43-38.19-13.86-53.06-20.97-14.86-7.11-31.51-16.24-36.99-20.29-5.49-4.05-20.8-16.58-34.04-27.84-14.84-12.64-30.31-23.75-40.38-29-11.72-6.12-15.67-9.1-14.01-10.59 1.26-1.13 7.71-4.39 14.31-7.24a213.81 213.81 0 0022.03-11.28c5.5-3.35 18.11-10.84 28.02-16.63 9.91-5.8 24.33-14.55 32.03-19.45 7.71-4.9 20.78-12 29.03-15.77 8.26-3.77 26.73-10.92 41.04-15.88 14.32-4.97 35.94-11.13 48.05-13.7 12.12-2.57 26.08-4.74 31.03-4.82zm-83.08 46.8c-11.01 2.94-26.78 8-35.03 11.24-8.26 3.24-28.08 12.85-44.05 21.35-17.56 9.35-29.03 16.64-29.03 18.45 0 2.5 4.35 3.04 26.03 3.24 14.31.13 45.84 1.26 70.07 2.52 24.22 1.25 70.62 2.68 103.1 3.16 32.48.48 71.22 1.89 86.09 3.13a2955.8 2955.8 0 0169.07 7c26.95 3.06 42.76 4.08 44.04 2.84 1.33-1.27.99-2.88-1-4.75-1.65-1.56-12.01-8.84-23.02-16.19-11.01-7.34-31.73-18.99-46.05-25.88-14.31-6.9-36.84-15.93-50.05-20.08-13.21-4.15-30.33-8.79-38.04-10.31-7.7-1.52-28.43-3.1-46.04-3.51-17.62-.4-39.69-.02-49.05.85-9.36.88-26.03 4-37.04 6.94zm-78.52 93.42c12.36 7.36 35.53 19.19 51.49 26.3 15.97 7.1 34.44 14.75 41.04 16.98 6.61 2.23 21.03 5.86 32.04 8.07 11.01 2.2 30.83 5.09 44.04 6.41 13.21 1.32 33.03 1.91 44.05 1.32 11.01-.6 24.07-2.05 29.02-3.23l27.03-6.35c9.91-2.32 27.03-8.46 38.04-13.65 11.01-5.2 25.87-13.35 33.03-18.12 7.16-4.77 15.51-11.02 18.56-13.89 3.05-2.87 5.53-6.34 5.51-7.72-.04-1.98-17.93-2.2-86.63-1.05-47.62.79-103.7 1.4-124.62 1.34-20.93-.05-55.16-1.67-76.08-3.6-20.92-1.93-50.88-5.69-66.57-8.35-15.69-2.66-29.43-4.84-30.53-4.84-1.1 0-1.97 1.58-1.94 3.5.04 2.3 7.73 8.07 22.52 16.88zM223.91 474.81c59.1.47 66.44.9 80.08 4.72a604.17 604.17 0 0122.85 6.84c4.31 1.45 12.19 6.91 17.52 12.13 5.32 5.22 12.07 14.67 14.99 21s6.47 18.25 7.88 26.5a281.47 281.47 0 013.2 29.58c.49 11.29-.05 15.01-2.38 16.47-1.65 1.04-11.78 1.9-22.52 1.92-14.71.02-20.26-.71-22.52-2.97-1.88-1.88-3.03-6.91-3.07-13.5-.04-5.78-1.21-15.9-2.6-22.5-1.38-6.6-4.51-14.92-6.93-18.5-2.43-3.58-7.8-8.2-11.93-10.27-4.12-2.07-12.91-4.99-19.52-6.49-8.24-1.88-26.12-2.72-57.05-2.7-28.97.02-50.41 1-60.06 2.74-8.26 1.49-19.75 4.39-25.53 6.46-8.62 3.09-11.58 5.47-16.49 13.26-3.88 6.16-6.78 14.42-8.27 23.5-1.31 8.02-1.81 22.55-1.16 34 .62 11 2.32 24.62 3.77 30.26 1.45 5.65 4.89 12.64 7.64 15.55 2.75 2.9 9.06 6.64 14.01 8.3 4.96 1.66 20.72 4.31 35.04 5.89 14.31 1.59 42.24 3.84 62.06 5.02 19.82 1.18 46.85 3.9 60.06 6.06 13.21 2.16 29.43 5.69 36.03 7.86 6.61 2.17 15.09 5.99 18.84 8.5s9.38 7.71 12.51 11.56c3.12 3.85 7.85 13.3 10.51 21 2.65 7.7 5.92 23.9 7.26 36a298.12 298.12 0 011.18 44c-.69 12.1-3.07 29.2-5.28 38-2.22 8.8-6.18 20.5-8.81 26-2.63 5.5-9.15 13.88-14.49 18.61-7.54 6.7-13.83 9.93-28.22 14.5-10.19 3.24-25.05 6.74-33.03 7.78a1665.4 1665.4 0 01-37.54 4.22c-12.66 1.28-34.29 1.9-48.05 1.36a867.87 867.87 0 01-46.05-3.14c-12.71-1.32-28.53-4.63-40.04-8.38-13.28-4.32-22.24-8.72-29.72-14.57-7.84-6.13-12.22-11.6-16.34-20.38a212.78 212.78 0 01-8.98-23c-1.99-6.52-3.9-22.23-4.69-38.58-1.12-23.35-.87-27.88 1.68-29.47 1.65-1.04 12.01-1.89 23.02-1.89s21.03.66 22.26 1.47c1.24.81 2.87 9.57 3.63 19.47.76 9.9 2.34 23.85 3.5 31 1.15 7.15 4.03 16.47 6.38 20.71 2.35 4.25 6.97 9.1 10.27 10.78a139.3 139.3 0 0015.02 6.1c6.91 2.33 22.05 3.24 65.06 3.91 44.43.7 59.39.25 72.08-2.13 8.81-1.66 20.07-4.76 25.02-6.9 6.97-3 10.25-6.1 14.48-13.67 4.02-7.22 6.06-14.81 7.73-28.8 1.3-10.9 1.74-29.02 1.04-42.5-.9-17.2-2.24-25.51-5.02-31-2.08-4.12-5.46-9.02-7.5-10.88-2.05-1.86-6.87-4.69-10.73-6.3-3.85-1.61-18.27-4.33-32.03-6.05-13.76-1.72-46.2-4.01-72.07-5.09-34.82-1.46-50.95-2.98-62.06-5.84-8.26-2.13-19.97-6.33-26.03-9.34-6.06-3.01-15-8.74-19.88-12.74-4.88-3.99-11.81-11.76-15.41-17.26-3.59-5.5-8.91-17.2-11.81-26-3.49-10.59-5.66-22.43-6.4-35-.66-11.07-.09-26.09 1.36-36 1.37-9.35 4.28-22.85 6.48-30 2.19-7.15 6.83-17.44 10.31-22.86 3.47-5.42 10.83-13.21 16.33-17.31 6.38-4.76 16.18-9.31 27.03-12.56 9.36-2.81 21.52-5.97 27.02-7.04 5.54-1.06 39.09-1.7 75.08-1.42zm387.39-.5c31.93-.13 64.36.68 72.07 1.79 7.71 1.11 22.57 4.57 33.03 7.68 10.46 3.11 21.72 7.06 25.03 8.77 3.3 1.71 10 6.56 14.89 10.78 6.19 5.35 10.96 12.21 15.75 22.67 3.77 8.25 7.62 19.5 8.54 25 .93 5.5 3.05 17.65 4.72 27 1.66 9.35 3.96 28.7 5.1 43 1.13 14.3 2.06 44 2.06 66s-.95 52.15-2.11 67c-1.15 14.85-2.89 31.95-3.86 38-.97 6.05-3.18 18.88-4.91 28.5-1.73 9.62-6.07 24.44-9.65 32.93-5.36 12.69-8.46 17.04-17.52 24.6a78.15 78.15 0 01-24.02 13.53 352.47 352.47 0 01-27.03 7.56c-7.71 1.77-23.92 4.2-36.04 5.41-12.11 1.2-38.24 2.22-58.06 2.26-19.81.04-45.94-1.02-58.05-2.36-12.12-1.34-31.03-4.81-42.05-7.7-11.01-2.9-23.39-6.95-27.52-9-4.13-2.05-11.67-7.56-16.75-12.23-5.09-4.67-11.06-12.1-13.29-16.5a129.5 129.5 0 01-6.78-17 482.62 482.62 0 01-5.89-22c-1.73-7.15-4.4-29.65-5.94-50-1.58-21-2.78-65.11-2.76-102 .02-41.12 1-73.08 2.67-87 1.86-15.53 4.54-26.7 9.11-38 3.56-8.8 8.95-19.6 11.97-24 3.03-4.4 10.83-12.09 17.33-17.09 7.68-5.9 17.45-10.96 27.84-14.43a344.57 344.57 0 0130.04-8.33c7.7-1.64 16.26-3.35 19.01-3.8 2.76-.44 31.14-.91 63.07-1.04zm-85.09 48.8c-7.16 1.67-16.61 4.77-21.02 6.89-4.4 2.12-9.74 6.81-11.86 10.42-2.12 3.62-5.48 15.13-7.47 25.58-1.98 10.45-4.53 34.75-5.66 54a1336.8 1336.8 0 00-2.03 65c.02 16.5.94 47.55 2.04 69 1.11 21.45 3.47 47.1 5.25 57 1.78 9.9 4.8 21.15 6.71 25 1.91 3.85 5.85 8.58 8.75 10.5 2.9 1.92 13.15 5.93 22.79 8.91l17.52 5.41c126.61.17 138.02-.31 149.65-3.32 7.43-1.92 18.24-5.67 24.02-8.32 8.53-3.91 11.17-6.36 14.01-13 1.93-4.5 4.84-13.8 6.47-20.68 1.64-6.87 3.98-26.45 5.2-43.5 1.37-18.97 1.88-63.2 1.33-114-.74-66.82-1.5-84.75-3.93-92a136.98 136.98 0 00-7.25-17c-2.33-4.4-5.37-9.44-6.78-11.2-1.4-1.76-6.15-5.02-10.55-7.25-4.41-2.22-13.86-5.47-21.02-7.23-7.16-1.76-22.92-4.13-35.04-5.26-12.11-1.13-35.53-1.94-52.05-1.79-16.52.15-38.14 1.06-48.05 2.03-9.91.97-23.87 3.14-31.03 4.81zm342.34-46.92c10.46-.07 20.37.72 22.03 1.77 2.61 1.65 3.15 23.11 4.17 165.47 1.03 142.11 1.61 165.28 4.45 176.57 1.8 7.15 5.55 16.38 8.34 20.5 3.23 4.79 8.5 9 14.57 11.65 5.23 2.28 17.16 5.51 26.52 7.17 13.41 2.38 28.7 2.83 72.08 2.12 44.14-.72 57.43-1.58 67.06-4.34 6.61-1.9 15.4-5.4 19.54-7.78 4.83-2.77 9.43-7.91 12.83-14.32 2.92-5.5 6.48-16.75 7.92-25 2-11.47 2.63-52.29 2.69-173.5.06-139.07.43-158.62 3.07-159.5 1.65-.55 12.01-1 23.02-1 15.13 0 20.76.73 23.03 3 2.61 2.61 2.99 22.12 2.95 151.5-.03 81.67-.88 157.05-1.88 167.5-1.01 10.45-3.36 25.3-5.24 33-1.87 7.7-5.71 18.95-8.53 25-2.82 6.05-9.23 14.97-14.23 19.83-5.01 4.85-13.62 10.88-19.12 13.38-5.51 2.51-17.22 6.39-26.03 8.63-8.81 2.24-26.37 5.22-39.04 6.61-12.66 1.39-37.43 2.53-55.05 2.54-17.62 0-42.39-1.11-55.06-2.49-12.66-1.37-31.35-4.74-41.54-7.5-10.18-2.75-22.8-7.13-28.03-9.74-5.23-2.61-14.01-9.6-19.52-15.54-6.13-6.62-12.06-15.81-15.32-23.76-2.92-7.13-6.3-19.93-7.51-28.46-1.41-10-2.33-73.26-2.59-178.33-.35-140.7-.01-162.97 2.5-163.85 1.6-.55 11.46-1.06 21.92-1.13zm397.54-.19c14.11 0 19.64.76 21.88 3 2.63 2.62 3.01 26.33 3.01 375l104.6.03c57.53.01 106.63.46 109.11 1 4.35.94 4.5 1.74 4.5 46.97h-133.13c-116.56 0-133.26-.37-134.13-3-.55-1.65-1.07-96.09-1.15-209.86-.13-189.37.14-207.12 3.15-210 2.51-2.4 7.73-3.14 22.16-3.14z" class="shp0"/>
</svg>