<svg
    xmlns="http://www.w3.org/2000/svg"
    viewBox="0 0 1596 925"
  >
    <path
      id="Path 0"
      fill="#fff"
      fillRule="evenodd"
      d="M1302 18l13 4a223 223 0 0145 28 790 790 0 0161 52c12 12 25 26 29 33l11 21c2 7 2 14 2 30a1208 1208 0 01-54 207c-1 1-10-6-20-13a6117 6117 0 00-55-44l-35-27a402 402 0 01-55-53l-13-19-9-25c-3-12-5-22-5-32a159 159 0 0125-87 176 176 0 0123-34 267 267 0 0137-41zm25 81a956 956 0 0013 82 939 939 0 0056 142c3 8 6 12 8 12a1105 1105 0 0027-124v-33c-1-11-4-19-10-31-5-12-12-21-19-29a331 331 0 00-71-50c-2 0-4 2-5 5-1 2 0 14 1 26zm-61 0l-12 22c-3 7-6 18-7 25-2 7-2 22-2 33 1 19 2 21 10 38 6 12 15 24 27 39a1037 1037 0 00100 97c3-1 2-4-4-15a1334 1334 0 01-45-110 1866 1866 0 01-29-125c-2-14-4-27-6-29l-3-2-12 9c-6 4-14 13-17 18zm-377 27a269 269 0 0166 11 424 424 0 0193 47 1848 1848 0 0192 66 1297 1297 0 00150 92 49783 49783 0 0094 51 765 765 0 0095 38 1043 1043 0 00122 26c5 2 5 2-11 13l-25-5a757 757 0 01-205-69c-11-4-29-14-40-20a1734 1734 0 00-99-55 2397 2397 0 00-59-36l-18-12c-6-3-6-3-29 13a730 730 0 01-96 51c-13 5-34 11-47 14a343 343 0 01-114-1 635 635 0 01-90-31l-37-21-34-27c-14-13-30-24-40-29-12-7-16-10-14-11l14-7a2289 2289 0 01111-63 595 595 0 0190-30c12-3 26-5 31-5zm-84 47a399 399 0 00-79 33c-17 9-29 16-29 18 0 3 5 3 26 3l70 3 104 3a1727 1727 0 01199 13c1-1 1-3-1-5a372 372 0 00-119-62l-38-10a373 373 0 00-133 4zm-78 93a598 598 0 00125 52l44 6c13 1 33 2 44 1a223 223 0 0056-9 234 234 0 0089-46l6-7c0-2-18-3-87-2l-124 2a1030 1030 0 01-174-17l-2 4c0 2 8 8 23 16zM224 475a294 294 0 01103 11c4 2 12 7 17 13 6 5 12 14 15 21 3 6 7 18 8 26 2 8 3 22 3 30 1 11 0 15-2 16l-22 2c-15 0-21-1-23-3s-3-7-3-13-1-16-3-23c-1-7-4-15-7-18-2-4-7-9-12-11-4-2-12-5-19-6-8-2-26-3-57-3-29 0-50 1-60 3l-26 6c-8 3-11 6-16 14-4 6-7 14-8 23a185 185 0 002 64c2 6 5 13 8 16s9 6 14 8 21 4 35 6l62 5a737 737 0 0196 14l19 8 12 12c3 4 8 13 11 21a208 208 0 018 80 173 173 0 01-14 64c-2 6-9 14-14 19-8 6-14 10-28 14l-34 8-37 4a416 416 0 01-134-10c-13-4-22-9-30-15s-12-11-16-20l-9-23c-2-7-4-22-5-39-1-23-1-27 2-29l23-2 22 2c1 0 3 9 4 19l3 31c1 7 4 16 7 21 2 4 7 9 10 10l15 7c7 2 22 3 65 4 44 0 59 0 72-3 9-1 20-4 25-7 7-3 10-6 14-13s7-15 8-29c2-11 2-29 1-42-1-18-2-26-5-31-2-5-5-10-7-11l-11-7-32-6-72-5c-35-1-51-3-62-6l-26-9-20-13c-5-4-12-11-15-17a136 136 0 01-19-61 201 201 0 018-66l10-23c4-5 11-13 17-17 6-5 16-9 27-13l27-7 75-1zm387-1l72 2a288 288 0 0158 17c4 1 10 6 15 10 7 6 11 13 16 23 4 8 8 20 9 25l4 27a565 565 0 017 109 1075 1075 0 01-10 134c-2 9-6 24-10 32-5 13-8 17-18 25-7 6-15 11-24 14a352 352 0 01-63 13 764 764 0 01-116-1 354 354 0 01-69-16l-17-12-13-17a483 483 0 01-13-39c-2-7-4-30-6-50a1687 1687 0 010-189 141 141 0 0121-62 98 98 0 0145-32 345 345 0 0149-12l63-1zm-85 49l-21 7c-4 2-10 7-12 10l-7 26a550 550 0 00-8 119 1697 1697 0 007 126l7 25c2 4 6 9 9 11l23 8 17 6c127 0 138 0 150-3l24-9c8-4 11-6 14-13l6-20c2-7 4-27 6-44a1809 1809 0 00-3-206 137 137 0 00-14-28c-1-2-6-5-11-7-4-3-13-6-21-8a305 305 0 00-87-7 695 695 0 00-79 7zm343-47l22 2c2 2 3 23 4 165 1 143 1 166 4 177l9 21c3 4 8 9 14 11 5 2 17 6 27 7 13 3 28 3 72 2 44 0 57-1 67-4 6-2 15-5 19-8 5-2 10-8 13-14 3-5 7-17 8-25 2-11 3-52 3-173 0-140 0-159 3-160a168 168 0 0146 2 4750 4750 0 011 319l-5 33-9 25c-3 6-9 15-14 20s-14 11-19 13a193 193 0 01-65 15 627 627 0 01-110 1 329 329 0 01-70-18 85 85 0 01-35-39c-3-7-6-20-7-28-2-10-3-74-3-179 0-141 0-163 3-164l22-1zm397 0c14 0 20 1 22 3 3 3 3 26 3 375h105l109 1c4 1 4 2 4 47h-133c-116 0-133 0-134-3a11365 11365 0 012-420c2-2 8-3 22-3z"
    />
  </svg>