<svg version="1" xmlns="http://www.w3.org/2000/svg" width="466.667" height="466.667" viewBox="0 0 350.000000 350.000000"><path d="M0 175v175h350V0H0v175zm243.4-69.5c15.1 9.1 35.2 27.9 39.7 37.1 3.1 6.6 3.4 12.4 1.1 23.7-3.1 14.8-16.4 56.8-17.9 56.2-2.6-.9-38.2-30.3-44.9-37.1-4.8-4.9-8.3-9.5-10.5-14-3.3-6.6-3.4-7.3-3.4-18.4 0-12.7 1.5-17.8 8.6-29.5 5.5-9.1 16.6-21.5 19.2-21.5 1.3 0 4.9 1.6 8.1 3.5zm-125.1 31.1c12.8 3.1 25.8 10.7 54.2 31.6 9.4 6.8 20.4 14.7 24.5 17.5 7.7 5.1 40.3 24.8 56.5 34.1 16.6 9.5 38.3 17 62.7 21.8 7.6 1.5 13.8 3 13.8 3.4 0 .3-1.2 1.3-2.7 2.2-2.5 1.4-3.6 1.4-9.3.2-17.8-3.7-43.8-12.8-62.5-21.9-17.1-8.3-45.5-24.5-61.7-35.1l-13.1-8.5-10.6 6.4C146 203 134.6 207 114.5 207.7c-15.2.6-24.9-1-38.8-6.3-14.8-5.7-23.8-11-34.8-20.4-5.7-4.9-12.8-10.1-15.8-11.6-3-1.6-4.8-3-4-3.2 2.9-.9 17.7-8.6 26.8-14 26.8-15.7 49.5-20.8 70.4-15.6z"/><path d="M242.5 127.7c.8 12.1 3.4 26.8 6.5 35.8 3 9 16.4 42.5 17 42.5.3 0 2.4-8.9 4.8-19.8 6.6-30.4 5.8-39.6-4.8-51.5-4.1-4.6-21.3-17.7-23.3-17.7-.5 0-.6 4.2-.2 10.7zM227.2 123c-9.2 8.9-13.6 22.1-11.2 33.7 2.6 12.5 7.5 18.9 36.5 47.3 6.9 6.8 7.5 7.2 6.2 4-.8-1.9-3.5-8.2-6-14-9.2-21.7-16.2-48-18.3-68.3-.4-4.1-1.1-6.7-1.8-6.7s-3.1 1.8-5.4 4zM86 146.6c-16.2 2.8-21 4.3-35.9 11.7l-12.5 6.2 4.5.6c2.4.4 16.6 1.2 31.4 1.8 39.8 1.7 57 2.9 76 5.1 9.4 1.1 17.4 2 17.8 2 3.6.1-12.8-11-24.7-16.6-10.4-4.9-15.3-6.6-24.9-8.8-6.8-1.6-26.9-2.9-31.7-2zM41 173c9.6 7.4 29.5 17.1 44.5 21.6 8.2 2.5 10.5 2.7 26 2.8 15.2.1 17.8-.2 24.5-2.2 11.4-3.6 30-13.7 30-16.3 0-.3-19.9-.9-44.2-1.2-44.9-.5-58.5-1.5-74.1-5.1-8.7-2-9.8-2-6.7.4z"/></svg>